<svg xmlns="http://www.w3.org/2000/svg" width="800" height="1000" viewBox="0 0 800 1000">
  <defs>
    <filter id="grain-hood">
      <feTurbulence type="fractalNoise" baseFrequency="0.9" numOctaves="2" stitchTiles="stitch" result="noise" />
      <feColorMatrix in="noise" type="matrix" values="0 0 0 0 1  0 0 0 0 1  0 0 0 0 1  0 0 0 0.04 0" />
    </filter>
    <pattern id="grid-hood" width="40" height="40" patternUnits="userSpaceOnUse">
      <path d="M40 0H0V40" fill="none" stroke="#e8e6e0" stroke-width="1" opacity="0.05" />
    </pattern>
  </defs>
  <rect width="800" height="1000" fill="#161616" />
  <rect width="800" height="1000" fill="url(#grid-hood)" />
  <rect width="800" height="1000" filter="url(#grain-hood)" />
  <g transform="translate(400,460)" fill="none" stroke="#c2410c" stroke-width="3" stroke-linejoin="round" stroke-linecap="round" opacity="0.85">
    <path d="M-100,-160 L-205,-110 L-175,-30 L-120,-60 L-120,190 L120,190 L120,-60 L175,-30 L205,-110 L100,-160 C 100,-160 130,-215 0,-215 C -130,-215 -100,-160 -100,-160 Z" />
    <path d="M-38,-190 C -38,-150 -18,-135 0,-135 C 18,-135 38,-150 38,-190" />
    <line x1="-15" y1="-130" x2="-25" y2="-20" />
    <line x1="15" y1="-130" x2="25" y2="-20" />
  </g>
  <text x="400" y="880" text-anchor="middle" fill="#e8e6e0" font-family="Arial, sans-serif" font-size="34" font-weight="700" letter-spacing="10" opacity="0.9">KYVORN</text>
  <text x="400" y="915" text-anchor="middle" fill="#a3a099" font-family="Arial, sans-serif" font-size="15" letter-spacing="4" opacity="0.7">SAMPLE — PHOTO PENDING</text>
</svg>
